<?xml version="1.0" encoding="UTF-8" standalone="no"?>
<svg width="382px" height="82px" viewBox="0 0 382 82" version="1.1" xmlns="http://www.w3.org/2000/svg" xmlns:xlink="http://www.w3.org/1999/xlink" xmlns:sketch="http://www.bohemiancoding.com/sketch/ns">
    <title>Untitled 3</title>
    <description>Created with Sketch (http://www.bohemiancoding.com/sketch)</description>
    <defs></defs>
    <g id="Page-1" stroke="none" stroke-width="1" fill="none" fill-rule="evenodd" sketch:type="MSPage">
        <path d="M157.667,16.3477202 C103.549,46.0577202 249.55,3.78572023 324.029,28.4857202 C266.765,11.5537202 143.057,40.0157202 116.381,36.9877202 C120.9,33.1827202 136.651,22.1427202 157.667,16.3477202 M258.8,81.4417202 L247.746,81.4417202 C247.314,79.8817202 247.134,78.2547202 247.241,76.5857202 C247.978,64.9497202 262.234,55.5187202 279.085,55.5187202 C279.731,55.5187202 280.375,55.5347202 281.013,55.5577202 C267.999,56.9467202 257.617,64.6687202 257.027,73.9807202 C256.86,76.6377202 257.501,79.1607202 258.8,81.4417202 M62.154,81.4417202 L51.097,81.4417202 C50.663,79.8817202 50.482,78.2547202 50.588,76.5857202 C51.326,64.9497202 65.585,55.5187202 82.433,55.5187202 C83.081,55.5187202 83.724,55.5347202 84.357,55.5577202 C71.347,56.9467202 60.964,64.6687202 60.372,73.9807202 C60.207,76.6377202 60.852,79.1607202 62.154,81.4417202 M98.416,26.9657202 C79.502,32.3897202 33.297,41.6817202 15.53,50.1277202 C8.747,53.3497202 0.967,64.6517202 0,76.6287202 C6.251,65.3057202 14.743,57.8657202 23.453,54.2297202 C42.738,46.1667202 84.278,39.0637202 104.293,34.2207202 C140.264,9.88072023 212.761,-4.81227977 274.566,10.0067202 C227.867,-4.90427977 158.583,-6.09127977 98.416,26.9657202" id="Fill-10" fill="#FFFFFF" sketch:type="MSShapeGroup"></path>
        <path d="M72,50.954019 C89.432,47.166019 106.78,51.020019 115.203,61.968019 C149.786,49.724019 286.924,17.311019 373.618,44.693019 C296.09,25.905019 153.07,52.379019 111.772,75.042019 C103.866,57.307019 86.842,50.448019 72,50.954019 M271.687,50.822019 C286.531,50.233019 303.55,57.350019 311.46,75.042019 C319.222,71.277019 351.868,62.801019 381.671,58.127019 C365.783,56.421019 341.388,58.087019 316.158,64.569019 C307.732,53.674019 292.107,46.574019 271.687,50.822019" id="Fill-11" fill="#44944C" sketch:type="MSShapeGroup"></path>
    </g>
</svg>