<?xml version="1.0" encoding="utf-8"?>
<!-- Generator: Adobe Illustrator 15.0.0, SVG Export Plug-In . SVG Version: 6.00 Build 0)  -->
<!DOCTYPE svg PUBLIC "-//W3C//DTD SVG 1.1//EN" "http://www.w3.org/Graphics/SVG/1.1/DTD/svg11.dtd">
<svg version="1.1" id="Layer_1" xmlns="http://www.w3.org/2000/svg" xmlns:xlink="http://www.w3.org/1999/xlink" x="0px" y="0px"
	 width="764px" height="164px" viewBox="0 0 764 164" enable-background="new 0 0 764 164" xml:space="preserve">
<path fill-rule="evenodd" clip-rule="evenodd" fill="#FFFFFF" d="M203.668,54.127C167.109,64.616,77.785,82.577,43.431,98.904
	c-13.106,6.23-28.139,28.072-30.015,51.229c12.09-21.885,28.497-36.268,45.337-43.303c37.281-15.582,117.584-29.31,156.274-38.679
	c69.541-47.048,209.688-75.453,329.165-46.803C453.91-7.481,319.984-9.775,203.668,54.127 M133.563,159.441h-21.371
	c-0.842-3.018-1.189-6.16-0.987-9.393c1.426-22.492,28.987-40.73,61.565-40.73c1.253,0,2.493,0.033,3.722,0.088
	c-25.155,2.688-45.226,17.602-46.364,35.613C129.799,150.15,131.046,155.027,133.563,159.441 M513.721,159.441H492.35
	c-0.844-3.018-1.188-6.16-0.981-9.393c1.42-22.492,28.989-40.73,61.56-40.73c1.254,0,2.493,0.033,3.729,0.088
	c-25.162,2.688-45.228,17.602-46.371,35.613C509.963,150.15,511.203,155.027,513.721,159.441 M318.212,33.603
	c-104.623,57.433,177.623-24.279,321.6,23.468c-110.7-32.734-349.842,22.28-401.412,16.433
	C247.131,66.146,277.579,44.81,318.212,33.603"/>
<path fill-rule="evenodd" clip-rule="evenodd" fill="#26844B" d="M538.956,100.064c28.688-1.145,61.596,12.627,76.881,46.816
	c15.012-7.279,78.118-23.664,135.735-32.703c-30.719-3.291-77.879-0.072-126.651,12.465
	C608.635,105.572,578.423,91.848,538.956,100.064 M152.924,100.314c33.697-7.32,67.232,0.127,83.524,21.289
	C303.3,97.932,568.4,35.276,736.002,88.207c-149.872-36.317-426.36,14.861-506.191,58.674
	C214.53,112.6,181.618,99.338,152.924,100.314"/>
</svg>
