<?xml version="1.0" encoding="utf-8"?>
<!-- Generator: Adobe Illustrator 15.0.0, SVG Export Plug-In . SVG Version: 6.00 Build 0)  -->
<!DOCTYPE svg PUBLIC "-//W3C//DTD SVG 1.1//EN" "http://www.w3.org/Graphics/SVG/1.1/DTD/svg11.dtd">
<svg version="1.1" id="Layer_1" xmlns="http://www.w3.org/2000/svg" xmlns:xlink="http://www.w3.org/1999/xlink" x="0px" y="0px"
	 width="702px" height="130px" viewBox="0 0 702 130" enable-background="new 0 0 702 130" xml:space="preserve">
<path fill="#FFFFFF" d="M75.98,1.682L62.428,71.392H46.581l9.128-47.06l-15.457,47.06H29.013l2.291-45.987l-8.962,45.987H6.494
	L20.046,1.682h23.456c-0.119,4.192-0.364,9.132-0.732,14.823l-0.871,17.73L52.393,1.682H75.98z"/>
<path fill="#FFFFFF" d="M116.746,42.501c-1.366,7.003-2.492,11.961-3.39,14.874c-0.894,2.913-2.449,5.576-4.652,7.989
	c-2.203,2.409-4.914,4.262-8.121,5.555c-3.211,1.292-6.78,1.936-10.714,1.936c-3.732,0-6.964-0.608-9.698-1.827
	c-2.733-1.222-4.766-3.053-6.097-5.491c-1.336-2.44-1.897-5.095-1.687-7.963c0.214-2.875,1.021-7.894,2.413-15.072l2.322-11.928
	c1.358-7.003,2.488-11.961,3.386-14.875c0.894-2.917,2.449-5.581,4.656-7.99c2.204-2.408,4.906-4.262,8.112-5.554
	c3.211-1.292,6.78-1.94,10.714-1.94c3.732,0,6.965,0.614,9.698,1.831c2.733,1.222,4.77,3.054,6.106,5.493
	c1.335,2.44,1.896,5.094,1.677,7.963c-0.21,2.873-1.016,7.894-2.413,15.072L116.746,42.501z M103.067,19.592
	c0.631-3.241,0.854-5.317,0.67-6.22c-0.179-0.902-0.832-1.358-1.949-1.358c-0.951,0-1.748,0.368-2.392,1.1
	c-0.644,0.732-1.314,2.891-2.01,6.479l-6.33,32.553c-0.789,4.048-1.108,6.544-0.964,7.489c0.149,0.951,0.824,1.424,2.028,1.424
	c1.235,0,2.133-0.543,2.689-1.639c0.557-1.09,1.231-3.688,2.033-7.791L103.067,19.592z"/>
<polygon fill="#FFFFFF" points="167.949,1.682 165.238,15.633 154.472,15.633 143.635,71.392 125.511,71.392 136.347,15.633 
	125.625,15.633 128.336,1.682 "/>
<path fill="#FFFFFF" d="M205.575,42.501c-1.367,7.003-2.492,11.961-3.39,14.874c-0.894,2.913-2.449,5.576-4.652,7.989
	c-2.204,2.409-4.915,4.262-8.121,5.555c-3.211,1.292-6.781,1.936-10.714,1.936c-3.731,0-6.964-0.608-9.697-1.827
	c-2.729-1.222-4.766-3.053-6.097-5.491c-1.336-2.44-1.897-5.095-1.687-7.963c0.214-2.875,1.021-7.894,2.417-15.072l2.317-11.928
	c1.358-7.003,2.488-11.961,3.386-14.875c0.897-2.917,2.449-5.581,4.656-7.99c2.203-2.408,4.906-4.262,8.112-5.554
	c3.21-1.292,6.78-1.94,10.714-1.94c3.731,0,6.964,0.614,9.697,1.831c2.733,1.222,4.771,3.054,6.106,5.493
	c1.336,2.44,1.896,5.094,1.678,7.963c-0.21,2.873-1.016,7.894-2.414,15.072L205.575,42.501z M191.896,19.592
	c0.63-3.241,0.854-5.317,0.67-6.22c-0.18-0.902-0.832-1.358-1.949-1.358c-0.951,0-1.748,0.368-2.392,1.1
	c-0.644,0.732-1.314,2.891-2.01,6.479l-6.329,32.553c-0.789,4.048-1.108,6.544-0.964,7.489c0.149,0.951,0.824,1.424,2.028,1.424
	c1.235,0,2.133-0.543,2.689-1.639c0.557-1.09,1.231-3.688,2.033-7.791L191.896,19.592z"/>
<path fill="#FFFFFF" d="M220.266,1.682h12.829c8.555,0,14.283,0.328,17.183,0.989c2.9,0.658,5.042,2.344,6.422,5.059
	c1.384,2.711,1.497,7.04,0.341,12.983c-1.055,5.423-2.435,9.071-4.148,10.937c-1.713,1.867-4.586,2.983-8.619,3.355
	c3.416,0.894,5.592,2.082,6.539,3.575c0.942,1.493,1.446,2.865,1.502,4.113c0.061,1.248-0.459,4.687-1.551,10.315l-3.573,18.383
	h-16.833l4.502-23.163c0.724-3.735,0.881-6.043,0.46-6.933c-0.411-0.889-1.869-1.335-4.37-1.335l-6.107,31.432h-18.125
	L220.266,1.682z M236.073,13.61l-3.013,15.501c2.041,0,3.521-0.28,4.45-0.841c0.928-0.561,1.686-2.374,2.286-5.445l0.74-3.832
	c0.434-2.213,0.32-3.663-0.337-4.35C239.543,13.951,238.172,13.61,236.073,13.61"/>
<path fill="#26844B" d="M319.73,32.037h-18.125l2.351-12.116c0.688-3.521,0.916-5.72,0.701-6.591
	c-0.214-0.877-0.991-1.315-2.308-1.315c-1.494,0-2.545,0.531-3.154,1.596c-0.61,1.059-1.253,3.355-1.937,6.884l-6.298,32.383
	c-0.657,3.386-0.89,5.598-0.688,6.631c0.202,1.034,1.008,1.551,2.413,1.551c1.35,0,2.331-0.517,2.954-1.555
	c0.617-1.033,1.295-3.464,2.041-7.293l1.699-8.765h18.13l-0.531,2.716c-1.402,7.219-2.899,12.335-4.506,15.353
	c-1.612,3.022-4.376,5.663-8.301,7.937c-3.929,2.269-8.453,3.408-13.561,3.408c-5.312,0-9.504-0.964-12.571-2.887
	c-3.069-1.923-4.839-4.587-5.295-7.989c-0.455-3.398-0.022-8.52,1.306-15.349l3.959-20.367c0.972-5.024,1.878-8.792,2.71-11.305
	c0.837-2.51,2.336-4.927,4.491-7.254c2.159-2.325,4.883-4.156,8.172-5.488c3.285-1.336,6.895-2.001,10.828-2.001
	c5.339,0,9.544,1.028,12.619,3.091c3.075,2.063,4.854,4.639,5.349,7.723c0.491,3.079,0.104,7.875-1.166,14.384L319.73,32.037z"/>
<path fill="#26844B" d="M363.465,1.682l-3.185,69.709h-18.522l1.462-12.526h-6.486l-3.521,12.526H314.47l22.797-69.709H363.465z
	 M345.144,46.504c0.621-7.893,1.594-17.652,2.934-29.281c-4.441,13.35-7.503,23.114-9.171,29.281H345.144z"/>
<path fill="#26844B" d="M376.905,1.682h12.835c8.553,0,14.282,0.328,17.183,0.989c2.898,0.658,5.041,2.344,6.426,5.059
	c1.38,2.711,1.488,7.04,0.337,12.983c-1.056,5.423-2.435,9.071-4.148,10.937c-1.713,1.867-4.586,2.983-8.62,3.355
	c3.417,0.894,5.594,2.082,6.535,3.575c0.946,1.493,1.45,2.865,1.507,4.113c0.062,1.248-0.455,4.687-1.551,10.315l-3.574,18.383
	h-16.837l4.508-23.163c0.722-3.735,0.875-6.043,0.46-6.933c-0.412-0.889-1.866-1.335-4.367-1.335l-6.115,31.432H363.36
	L376.905,1.682z M392.718,13.61l-3.013,15.501c2.041,0,3.525-0.28,4.449-0.841c0.925-0.561,1.69-2.374,2.286-5.445l0.744-3.832
	c0.431-2.213,0.316-3.663-0.336-4.35C396.191,13.951,394.815,13.61,392.718,13.61"/>
<polygon fill="#FFFFFF" points="439.948,1.682 470.171,1.682 467.465,15.633 455.366,15.633 452.792,28.853 464.113,28.853 
	461.537,42.115 450.216,42.115 447.236,57.441 460.544,57.441 457.828,71.392 426.396,71.392 "/>
<path fill="#FFFFFF" d="M513.337,1.682L500.973,32.51l2.045,38.882h-16.793c-0.653-6.951-0.846-15.418-0.573-25.404
	c-1.319,4.423-2.865,9.105-4.639,14.042l-3.916,11.361h-17.652l14.144-38.882l-0.596-30.828h17.524
	c-0.052,1.918-0.044,5.121,0.027,9.597c0.092,3.416,0.104,6.562,0.021,9.435l7.573-19.032H513.337z"/>
<path fill="#FFFFFF" d="M519.129,1.682h18.255c4.941,0,8.659,0.385,11.166,1.161c2.505,0.775,4.283,1.896,5.335,3.359
	c1.051,1.464,1.607,3.237,1.677,5.317c0.069,2.081-0.319,5.304-1.169,9.667l-1.179,6.072c-0.866,4.449-1.958,7.695-3.271,9.731
	c-1.314,2.037-3.308,3.601-5.97,4.692c-2.668,1.09-5.979,1.638-9.943,1.638h-4.861l-5.459,28.072h-18.13L519.129,1.682z
	 M534.939,13.61l-3.45,17.738c0.517,0.027,0.954,0.044,1.33,0.044c1.666,0,2.9-0.412,3.701-1.231
	c0.807-0.814,1.459-2.518,1.963-5.098l1.113-5.729c0.464-2.382,0.389-3.934-0.214-4.647C538.777,13.969,537.292,13.61,534.939,13.61
	"/>
<path fill="#FFFFFF" d="M596.885,42.501c-1.363,7.003-2.494,11.961-3.392,14.874c-0.893,2.913-2.448,5.576-4.65,7.989
	c-2.204,2.409-4.916,4.262-8.121,5.555c-3.206,1.292-6.777,1.936-10.709,1.936c-3.732,0-6.961-0.608-9.698-1.827
	c-2.733-1.222-4.766-3.053-6.102-5.491c-1.336-2.44-1.896-5.095-1.678-7.963c0.21-2.875,1.011-7.894,2.409-15.072l2.317-11.928
	c1.361-7.003,2.492-11.961,3.386-14.875c0.898-2.917,2.448-5.581,4.656-7.99c2.202-2.408,4.91-4.262,8.12-5.554
	c3.207-1.292,6.776-1.94,10.71-1.94c3.732,0,6.964,0.614,9.696,1.831c2.733,1.222,4.766,3.054,6.102,5.493
	c1.332,2.44,1.893,5.094,1.682,7.963c-0.214,2.873-1.021,7.894-2.413,15.072L596.885,42.501z M583.209,19.592
	c0.632-3.241,0.85-5.317,0.666-6.22c-0.18-0.902-0.833-1.358-1.954-1.358c-0.946,0-1.739,0.368-2.387,1.1
	c-0.645,0.732-1.313,2.891-2.011,6.479l-6.329,32.553c-0.788,4.048-1.104,6.544-0.96,7.489c0.145,0.951,0.824,1.424,2.028,1.424
	c1.235,0,2.129-0.543,2.686-1.639c0.556-1.09,1.235-3.688,2.032-7.791L583.209,19.592z"/>
<path fill="#FFFFFF" d="M611.574,1.682h12.83c8.559,0,14.283,0.328,17.184,0.989c2.898,0.658,5.041,2.344,6.426,5.059
	c1.384,2.711,1.493,7.04,0.337,12.983c-1.057,5.423-2.437,9.071-4.148,10.937c-1.713,1.867-4.586,2.983-8.62,3.355
	c3.421,0.894,5.598,2.082,6.539,3.575c0.942,1.493,1.446,2.865,1.503,4.113c0.062,1.248-0.455,4.687-1.551,10.315l-3.574,18.383
	h-16.833l4.504-23.163c0.722-3.735,0.879-6.043,0.459-6.933c-0.412-0.889-1.865-1.335-4.366-1.335l-6.11,31.432h-18.125
	L611.574,1.682z M627.383,13.61l-3.015,15.501c2.042,0,3.527-0.28,4.455-0.841c0.921-0.561,1.687-2.374,2.282-5.445l0.744-3.832
	c0.431-2.213,0.316-3.663-0.337-4.35C630.856,13.951,629.48,13.61,627.383,13.61"/>
<polygon fill="#FFFFFF" points="695.581,1.682 692.869,15.633 682.108,15.633 671.271,71.392 653.143,71.392 663.982,15.633 
	653.256,15.633 655.968,1.682 "/>
<g>
	<path fill="#939598" d="M97.495,103.972l-2.501,10.402c-1.068,4.429-2.72,7.385-4.967,8.883l0.579,5.248h-3.229l-0.434-4.176
		c-0.315,0.062-0.767,0.093-1.367,0.093c-2.273,0-3.841-0.723-4.7-2.178c-0.863-1.449-0.836-4.072,0.074-7.87l2.506-10.402
		c0.911-3.798,2.15-6.422,3.709-7.877c1.559-1.449,3.469-2.171,5.725-2.171c2.26,0,3.819,0.722,4.683,2.171
		C98.433,97.55,98.411,100.174,97.495,103.972z M91.285,115.049l2.829-11.752c1.034-4.306,0.403-6.462-1.901-6.462
		c-1.104,0-2.076,0.465-2.913,1.395c-0.836,0.923-1.551,2.614-2.137,5.067l-2.83,11.752c-0.587,2.451-0.688,4.139-0.297,5.066
		c0.389,0.93,1.134,1.39,2.243,1.39h0.359l-0.67-6.908h3.141l0.495,4.844C90.264,118.426,90.825,116.963,91.285,115.049z"/>
	<path fill="#939598" d="M114.819,94.593h3.543l-5.295,22.024c-0.916,3.798-2.15,6.42-3.714,7.869
		c-1.559,1.455-3.443,2.179-5.655,2.179c-2.216,0-3.754-0.724-4.612-2.179c-0.863-1.449-0.836-4.071,0.074-7.869l5.3-22.024h3.543
		l-5.462,22.698c-0.583,2.421-0.688,4.104-0.315,5.046c0.372,0.94,1.086,1.411,2.15,1.411c1.06,0,2.011-0.471,2.852-1.411
		c0.836-0.942,1.55-2.625,2.133-5.046L114.819,94.593z"/>
	<path fill="#939598" d="M126.689,125.99l0.569-8.162h-6.32l-3.312,8.162h-3.587l13.293-31.397h4.757l-1.813,31.397H126.689z
		 M128.621,99.127l-6.5,15.828h5.339L128.621,99.127z"/>
	<path fill="#939598" d="M133.82,125.99l7.552-31.397h3.586l-6.859,28.527h6.952l-0.692,2.87H133.82z"/>
	<path fill="#939598" d="M147.858,125.99l7.551-31.397h3.588l-7.552,31.397H147.858z"/>
	<path fill="#939598" d="M161.717,97.467l0.688-2.874h12.247l-0.692,2.874h-4.35l-6.863,28.523h-3.543l6.863-28.523H161.717z"/>
	<path fill="#939598" d="M177.818,125.99h-3.5l2.527-10.495l-0.894-20.902h3.5l0.276,16.193l8.02-16.193h3.5l-10.907,20.902
		L177.818,125.99z"/>
	<path fill="#939598" d="M204.278,125.99l0.574-8.162h-6.325l-3.307,8.162h-3.587l13.293-31.397h4.753l-1.809,31.397H204.278z
		 M206.214,99.127l-6.5,15.828h5.334L206.214,99.127z"/>
	<path fill="#939598" d="M229.013,94.593h3.543l-5.3,22.024c-0.915,3.798-2.15,6.42-3.71,7.869
		c-1.559,1.455-3.447,2.179-5.658,2.179c-2.212,0-3.749-0.724-4.612-2.179c-0.863-1.449-0.837-4.071,0.079-7.869l5.295-22.024h3.543
		l-5.458,22.698c-0.583,2.421-0.692,4.104-0.319,5.046c0.372,0.94,1.09,1.411,2.15,1.411c1.061,0,2.011-0.471,2.853-1.411
		c0.841-0.942,1.55-2.625,2.133-5.046L229.013,94.593z"/>
	<path fill="#939598" d="M234.957,97.467l0.692-2.874h12.247l-0.692,2.874h-4.35l-6.864,28.523h-3.543l6.864-28.523H234.957z"/>
	<path fill="#939598" d="M262.459,103.972l-3.044,12.646c-0.912,3.798-2.151,6.42-3.71,7.869c-1.56,1.455-3.469,2.179-5.726,2.179
		c-2.259,0-3.819-0.724-4.682-2.179c-0.859-1.449-0.837-4.071,0.079-7.869l3.044-12.646c0.912-3.798,2.151-6.422,3.71-7.877
		c1.56-1.449,3.47-2.171,5.726-2.171c2.259,0,3.819,0.722,4.682,2.171C263.397,97.55,263.375,100.174,262.459,103.972z
		 M255.709,117.291l3.369-13.994c1.033-4.306,0.403-6.462-1.902-6.462c-1.103,0-2.076,0.465-2.913,1.395
		c-0.836,0.923-1.55,2.614-2.137,5.067l-3.368,13.994c-0.592,2.452-0.692,4.14-0.298,5.066c0.39,0.931,1.134,1.391,2.243,1.391
		C253.007,123.748,254.676,121.596,255.709,117.291z"/>
	<path fill="#939598" d="M273.519,118.95c0.579-2.391,0.21-4.229-1.094-5.52l-2.953-2.645c-2.229-1.913-2.895-4.738-1.992-8.475
		c0.744-3.111,1.861-5.288,3.342-6.526c1.476-1.24,3.242-1.861,5.292-1.861c2.045,0,3.5,0.573,4.363,1.726
		c0.854,1.151,1.041,3.236,0.556,6.254l-3.591,0.768c0.797-3.829,0.145-5.743-1.962-5.743c-2.107,0-3.553,1.63-4.337,4.889
		c-0.346,1.437-0.469,2.602-0.372,3.5c0.097,0.897,0.508,1.702,1.235,2.422l2.904,2.645c0.696,0.597,1.231,1.165,1.612,1.705
		c0.376,0.537,0.656,1.397,0.836,2.578c0.175,1.184,0.075,2.581-0.315,4.193c-0.691,2.873-1.795,4.889-3.32,6.057
		c-1.52,1.165-3.342,1.749-5.466,1.749c-2.12,0-3.618-0.688-4.481-2.064c-0.863-1.375-1.006-3.826-0.429-7.354l3.505-0.586
		c-0.491,2.545-0.561,4.354-0.207,5.426c0.355,1.077,1.083,1.617,2.189,1.617C271.193,123.704,272.757,122.117,273.519,118.95z"/>
	<path fill="#939598" d="M297.032,125.99l0.573-8.162h-6.325l-3.307,8.162h-3.587l13.294-31.397h4.751l-1.809,31.397H297.032z
		 M298.967,99.127l-6.5,15.828h5.335L298.967,99.127z"/>
	<path fill="#939598" d="M307.483,97.467l0.691-2.874h12.247l-0.691,2.874h-4.355l-6.858,28.523h-3.543l6.864-28.523H307.483z"/>
	<path fill="#939598" d="M329.742,111.772l-2.729,11.348h7.805l-0.692,2.87h-11.392l7.551-31.397h11.261l-0.692,2.874h-7.67
		l-2.75,11.436h6.995l-0.692,2.87H329.742z"/>
	<path fill="#939598" d="M348.14,94.593l1.506,11.262l6.877-11.262h3.413l-9.724,15.431l2.167,15.967h-3.495l-1.604-11.616
		l-7.144,11.616h-3.408l9.975-15.923l-2.063-15.475H348.14z"/>
	<path fill="#939598" d="M360.557,122.381c0.351,0.91,1.047,1.367,2.094,1.367s1.928-0.396,2.641-1.188
		c0.715-0.793,1.427-2.295,2.14-4.506l3.041,0.402c-1.004,3.049-2.195,5.181-3.578,6.39c-1.383,1.215-3.087,1.819-5.124,1.819
		c-2.032,0-3.469-0.731-4.314-2.199c-0.845-1.462-0.792-4.157,0.149-8.074l2.935-12.196c0.941-3.921,2.186-6.611,3.737-8.073
		c1.545-1.468,3.33-2.198,5.35-2.198c2.019,0,3.43,0.521,4.239,1.567c0.811,1.047,1.012,2.917,0.604,5.605l-3.469,0.807
		c0.28-1.909,0.263-3.232-0.057-3.969c-0.315-0.731-0.96-1.1-1.933-1.1c-0.972,0-1.856,0.475-2.646,1.416
		c-0.794,0.941-1.494,2.667-2.099,5.182l-3.347,13.902C360.333,119.787,360.211,121.469,360.557,122.381z"/>
	<path fill="#939598" d="M379.705,111.772l-2.734,11.348h7.81l-0.691,2.87h-11.393l7.551-31.397h11.262l-0.691,2.874h-7.67
		l-2.756,11.436h7.005l-0.692,2.87H379.705z"/>
	<path fill="#939598" d="M388.798,125.99l7.555-31.397h5.563c2.242,0,3.792,0.728,4.655,2.178c0.863,1.449,0.837,4.073-0.077,7.87
		l-0.053,0.224c-0.916,3.798-2.151,6.418-3.707,7.849c-1.554,1.437-3.455,2.154-5.698,2.154h-1.97l-2.677,11.123H388.798z
		 M402.757,105.446l0.333-1.389c1.061-4.397,0.438-6.591-1.865-6.591h-1.976l-3.505,14.577h1.976
		C400.02,112.044,401.697,109.844,402.757,105.446z"/>
	<path fill="#939598" d="M409.699,97.467l0.692-2.874h12.247l-0.692,2.874h-4.354l-6.858,28.523h-3.545l6.865-28.523H409.699z"/>
	<path fill="#939598" d="M418.49,125.99l7.556-31.397h3.588l-7.553,31.397H418.49z"/>
	<path fill="#939598" d="M446.439,103.972l-3.044,12.646c-0.91,3.798-2.15,6.42-3.71,7.869c-1.56,1.455-3.469,2.179-5.725,2.179
		c-2.26,0-3.819-0.724-4.683-2.179c-0.859-1.449-0.836-4.071,0.079-7.869l3.045-12.646c0.91-3.798,2.149-6.422,3.709-7.877
		c1.559-1.449,3.47-2.171,5.726-2.171c2.259,0,3.818,0.722,4.682,2.171C447.377,97.55,447.355,100.174,446.439,103.972z
		 M439.689,117.291l3.369-13.994c1.033-4.306,0.403-6.462-1.901-6.462c-1.104,0-2.076,0.465-2.912,1.395
		c-0.837,0.923-1.552,2.614-2.138,5.067l-3.368,13.994c-0.592,2.452-0.692,4.14-0.298,5.066c0.39,0.931,1.134,1.391,2.242,1.391
		C436.987,123.748,438.656,121.596,439.689,117.291z"/>
	<path fill="#939598" d="M449.664,125.99h-3.5l7.551-31.397h3.724l1.786,22.965l5.528-22.965h3.496l-7.552,31.397h-3.723
		l-1.796-22.917L449.664,125.99z"/>
	<path fill="#939598" d="M476.886,125.99l0.574-8.162h-6.325l-3.308,8.162h-3.587l13.294-31.397h4.753l-1.81,31.397H476.886z
		 M478.822,99.127l-6.5,15.828h5.335L478.822,99.127z"/>
	<path fill="#939598" d="M484.018,125.99l7.556-31.397h3.586l-6.863,28.527h6.956l-0.692,2.87H484.018z"/>
	<path fill="#939598" d="M504.517,125.99l7.551-31.397h5.562c2.243,0,3.798,0.728,4.656,2.178c0.862,1.449,0.837,4.073-0.075,7.87
		l-0.057,0.224c-0.911,3.798-2.146,6.418-3.705,7.849c-1.556,1.437-3.452,2.154-5.694,2.154h-1.976l-2.676,11.123H504.517z
		 M518.471,105.446l0.338-1.389c1.055-4.397,0.434-6.591-1.866-6.591h-1.977l-3.507,14.577h1.975
		C515.737,112.044,517.416,109.844,518.471,105.446z"/>
	<path fill="#939598" d="M520.796,125.99l7.553-31.397h5.562c2.212,0,3.762,0.705,4.651,2.112c0.89,1.405,0.894,3.928,0.018,7.576
		l-0.057,0.224c-1.091,4.548-2.892,7.433-5.401,8.66l0.636,12.825h-3.676l-0.608-12.02h-2.198l-2.892,12.02H520.796z
		 M534.875,104.957l0.319-1.345c0.557-2.305,0.636-3.902,0.236-4.801c-0.395-0.897-1.135-1.345-2.208-1.345h-1.976l-3.293,13.679
		h1.976C532.233,111.146,533.88,109.082,534.875,104.957z"/>
	<path fill="#939598" d="M538.107,125.99l7.556-31.397h3.587l-7.552,31.397H538.107z"/>
	<path fill="#939598" d="M551.983,122.381c0.35,0.91,1.046,1.367,2.094,1.367c1.047,0,1.928-0.396,2.641-1.188
		c0.715-0.793,1.429-2.295,2.142-4.506l3.04,0.402c-1.003,3.049-2.193,5.181-3.578,6.39c-1.384,1.215-3.093,1.819-5.125,1.819
		s-3.474-0.731-4.313-2.199c-0.847-1.462-0.793-4.157,0.148-8.074l2.934-12.196c0.943-3.921,2.186-6.611,3.737-8.073
		c1.547-1.468,3.333-2.198,5.353-2.198c2.016,0,3.43,0.521,4.24,1.567c0.81,1.047,1.011,2.917,0.599,5.605l-3.465,0.807
		c0.282-1.909,0.26-3.232-0.057-3.969c-0.315-0.731-0.958-1.1-1.931-1.1c-0.974,0-1.856,0.475-2.65,1.416
		c-0.797,0.941-1.493,2.667-2.098,5.182l-3.346,13.902C551.756,119.787,551.637,121.469,551.983,122.381z"/>
	<path fill="#939598" d="M571.134,111.772l-2.729,11.348h7.805l-0.69,2.87h-11.394l7.551-31.397h11.262l-0.692,2.874h-7.67
		l-2.75,11.436h6.995l-0.692,2.87H571.134z"/>
	<path fill="#939598" d="M591.562,118.95c0.579-2.391,0.211-4.229-1.094-5.52l-2.953-2.645c-2.229-1.913-2.896-4.738-1.992-8.475
		c0.744-3.111,1.86-5.288,3.341-6.526c1.477-1.24,3.242-1.861,5.291-1.861c2.047,0,3.5,0.573,4.363,1.726
		c0.854,1.151,1.042,3.236,0.557,6.254l-3.592,0.768c0.797-3.829,0.145-5.743-1.962-5.743c-2.107,0-3.553,1.63-4.337,4.889
		c-0.347,1.437-0.469,2.602-0.372,3.5c0.096,0.897,0.508,1.702,1.235,2.422l2.903,2.645c0.696,0.597,1.231,1.165,1.612,1.705
		c0.376,0.537,0.656,1.397,0.836,2.578c0.176,1.184,0.075,2.581-0.315,4.193c-0.692,2.873-1.795,4.889-3.319,6.057
		c-1.521,1.165-3.343,1.749-5.466,1.749c-2.12,0-3.619-0.688-4.481-2.064c-0.863-1.375-1.008-3.826-0.43-7.354l3.504-0.586
		c-0.489,2.545-0.561,4.354-0.205,5.426c0.355,1.077,1.081,1.617,2.189,1.617C589.236,123.704,590.8,122.117,591.562,118.95z"/>
</g>
</svg>
