<?xml version="1.0" encoding="UTF-8" standalone="no"?>
<svg width="351px" height="65px" viewBox="0 0 351 65" version="1.1" xmlns="http://www.w3.org/2000/svg" xmlns:xlink="http://www.w3.org/1999/xlink" xmlns:sketch="http://www.bohemiancoding.com/sketch/ns">
    <title>Untitled 4</title>
    <description>Created with Sketch (http://www.bohemiancoding.com/sketch)</description>
    <defs></defs>
    <g id="Page-1" stroke="none" stroke-width="1" fill="none" fill-rule="evenodd" sketch:type="MSPage">
        <path d="M35.412,1 L28.506,36.528 L20.431,36.528 L25.082,12.543 L17.205,36.528 L11.476,36.528 L12.643,13.092 L8.078,36.528 L0,36.528 L6.908,1 L18.861,1 C18.801,3.135 18.676,5.654 18.487,8.553 L18.045,17.59 L23.393,1 L35.412,1" id="Fill-12" fill="#FFFFFF" sketch:type="MSShapeGroup"></path>
        <path d="M48.6575149,9.873 C48.9745149,8.224 49.0935149,7.163 48.9975149,6.704 C48.9055149,6.244 48.5745149,6.013 48.0035149,6.013 C47.5205149,6.013 47.1135149,6.201 46.7865149,6.575 C46.4555149,6.945 46.1155149,8.046 45.7615149,9.873 L42.5355149,26.467 C42.1355149,28.527 41.9705149,29.799 42.0465149,30.282 C42.1185149,30.768 42.4635149,31.006 43.0775149,31.006 C43.7095149,31.006 44.1615149,30.731 44.4455149,30.173 C44.7305149,29.618 45.0775149,28.292 45.4845149,26.2 L48.6575149,9.873 L48.6575149,9.873 Z M55.6255149,21.549 C54.9315149,25.119 54.3565149,27.644 53.9005149,29.132 C53.4405149,30.616 52.6535149,31.971 51.5265149,33.201 C50.4055149,34.431 49.0245149,35.376 47.3915149,36.034 C45.7545149,36.691 43.9375149,37.019 41.9305149,37.019 C40.0265149,37.019 38.3805149,36.711 36.9885149,36.09 C35.5935149,35.468 34.5595149,34.533 33.8785149,33.29 C33.2005149,32.047 32.9135149,30.692 33.0225149,29.231 C33.1315149,27.767 33.5415149,25.208 34.2525149,21.549 L35.4355149,15.47 C36.1265149,11.9 36.7015149,9.374 37.1605149,7.89 C37.6135149,6.403 38.4065149,5.048 39.5305149,3.818 C40.6545149,2.592 42.0325149,1.646 43.6695149,0.988 C45.3055149,0.331 47.1235149,0 49.1265149,0 C51.0305149,0 52.6765149,0.311 54.0685149,0.932 C55.4635149,1.557 56.5015149,2.489 57.1825149,3.732 C57.8595149,4.975 58.1445149,6.327 58.0385149,7.791 C57.9255149,9.252 57.5195149,11.814 56.8055149,15.47 L55.6255149,21.549 L55.6255149,21.549 Z" id="Fill-13" fill="#FFFFFF" sketch:type="MSShapeGroup"></path>
        <path d="M81.628,1 L80.246,8.11 L74.759,8.11 L69.236,36.528 L60,36.528 L65.523,8.11 L60.059,8.11 L61.438,1 L81.628,1" id="Fill-14" fill="#FFFFFF" sketch:type="MSShapeGroup"></path>
        <path d="M93.6565977,9.873 C93.9775977,8.224 94.0925977,7.163 94.0005977,6.704 C93.9075977,6.244 93.5735977,6.013 93.0055977,6.013 C92.5225977,6.013 92.1125977,6.201 91.7855977,6.575 C91.4585977,6.945 91.1145977,8.046 90.7605977,9.873 L87.5345977,26.467 C87.1345977,28.527 86.9725977,29.799 87.0455977,30.282 C87.1185977,30.768 87.4655977,31.006 88.0805977,31.006 C88.7085977,31.006 89.1645977,30.731 89.4485977,30.173 C89.7335977,29.618 90.0765977,28.292 90.4835977,26.2 L93.6565977,9.873 L93.6565977,9.873 Z M100.624598,21.549 C99.9335977,25.119 99.3585977,27.644 98.8995977,29.132 C98.4435977,30.616 97.6525977,31.971 96.5285977,33.201 C95.4055977,34.431 94.0265977,35.376 92.3905977,36.034 C90.7545977,36.691 88.9365977,37.019 86.9335977,37.019 C85.0285977,37.019 83.3825977,36.711 81.9875977,36.09 C80.5995977,35.468 79.5585977,34.533 78.8775977,33.29 C78.1995977,32.047 77.9155977,30.692 78.0215977,29.231 C78.1305977,27.767 78.5435977,25.208 79.2515977,21.549 L80.4345977,15.47 C81.1285977,11.9 81.7035977,9.374 82.1635977,7.89 C82.6195977,6.403 83.4095977,5.048 84.5295977,3.818 C85.6575977,2.592 87.0355977,1.646 88.6685977,0.988 C90.3045977,0.331 92.1225977,0 94.1295977,0 C96.0295977,0 97.6755977,0.311 99.0705977,0.932 C100.462598,1.557 101.500598,2.489 102.181598,3.732 C102.862598,4.975 103.146598,6.327 103.037598,7.791 C102.928598,9.252 102.518598,11.814 101.807598,15.47 L100.624598,21.549 L100.624598,21.549 Z" id="Fill-15" fill="#FFFFFF" sketch:type="MSShapeGroup"></path>
        <path d="M116.96,7.079 L115.423,14.979 C116.461,14.979 117.218,14.837 117.691,14.549 C118.16,14.265 118.55,13.339 118.857,11.776 L119.234,9.823 C119.453,8.695 119.396,7.955 119.063,7.605 C118.726,7.251 118.028,7.079 116.96,7.079 M108.905,1 L115.44,1 C119.8,1 122.722,1.168 124.196,1.506 C125.677,1.84 126.768,2.699 127.469,4.081 C128.172,5.466 128.232,7.67 127.647,10.699 C127.108,13.462 126.404,15.323 125.532,16.272 C124.659,17.224 123.194,17.795 121.139,17.984 C122.877,18.437 123.988,19.045 124.467,19.805 C124.95,20.565 125.208,21.266 125.237,21.901 C125.267,22.536 125,24.291 124.447,27.157 L122.623,36.528 L114.045,36.528 L116.342,24.721 C116.709,22.816 116.789,21.643 116.574,21.187 C116.362,20.734 115.622,20.506 114.349,20.506 L111.235,36.528 L102,36.528 L108.905,1" id="Fill-16" fill="#FFFFFF" sketch:type="MSShapeGroup"></path>
        <path d="M149.796813,16.217 L150.996813,10.042 C151.343813,8.248 151.462813,7.127 151.350813,6.684 C151.240813,6.238 150.847813,6.013 150.176813,6.013 C149.416813,6.013 148.880813,6.284 148.566813,6.826 C148.259813,7.365 147.928813,8.535 147.581813,10.336 L144.372813,26.838 C144.038813,28.563 143.919813,29.69 144.021813,30.216 C144.124813,30.745 144.534813,31.006 145.251813,31.006 C145.939813,31.006 146.441813,30.745 146.755813,30.216 C147.069813,29.687 147.416813,28.451 147.796813,26.497 L148.662813,22.031 L157.901813,22.031 L157.630813,23.416 C156.916813,27.096 156.152813,29.7 155.336813,31.241 C154.513813,32.781 153.105813,34.126 151.102813,35.287 C149.102813,36.443 146.798813,37.022 144.190813,37.022 C141.486813,37.022 139.347813,36.529 137.787813,35.551 C136.220813,34.569 135.321813,33.214 135.090813,31.478 C134.855813,29.747 135.076813,27.139 135.754813,23.658 L137.767813,13.278 C138.266813,10.717 138.726813,8.796 139.152813,7.517 C139.579813,6.238 140.342813,5.005 141.440813,3.818 C142.541813,2.631 143.929813,1.699 145.608813,1.021 C147.280813,0.34 149.118813,0 151.125813,0 C153.845813,0 155.991813,0.526 157.554813,1.577 C159.125813,2.631 160.030813,3.943 160.281813,5.514 C160.533813,7.084 160.334813,9.527 159.686813,12.842 L159.035813,16.217 L149.796813,16.217 Z" id="Fill-17" fill="#44944C" sketch:type="MSShapeGroup"></path>
        <path d="M172.635,23.845 C172.949,19.818 173.448,14.847 174.129,8.92 C171.865,15.726 170.308,20.701 169.455,23.845 L172.635,23.845 L172.635,23.845 Z M181.97,1 L180.35,36.528 L170.909,36.528 L171.653,30.142 L168.348,30.142 L166.553,36.528 L157,36.528 L168.619,1 L181.97,1 L181.97,1 Z" id="Fill-18" fill="#44944C" sketch:type="MSShapeGroup"></path>
        <path d="M196.96,7.079 L195.427,14.979 C196.468,14.979 197.226,14.837 197.694,14.549 C198.163,14.265 198.558,13.339 198.861,11.776 L199.238,9.823 C199.456,8.695 199.4,7.955 199.067,7.605 C198.733,7.251 198.032,7.079 196.96,7.079 M188.905,1 L195.443,1 C199.804,1 202.726,1.168 204.203,1.506 C205.677,1.84 206.772,2.699 207.476,4.081 C208.18,5.466 208.235,7.67 207.648,10.699 C207.109,13.462 206.407,15.323 205.535,16.272 C204.663,17.224 203.198,17.795 201.142,17.984 C202.881,18.437 203.991,19.045 204.471,19.805 C204.954,20.565 205.212,21.266 205.241,21.901 C205.271,22.536 205.007,24.291 204.45,27.157 L202.626,36.528 L194.045,36.528 L196.343,24.721 C196.713,22.816 196.788,21.643 196.577,21.187 C196.369,20.734 195.628,20.506 194.353,20.506 L191.239,36.528 L182,36.528 L188.905,1" id="Fill-19" fill="#44944C" sketch:type="MSShapeGroup"></path>
        <path d="M220.905,1 L236.309,1 L234.931,8.11 L228.766,8.11 L227.451,14.847 L233.222,14.847 L231.91,21.607 L226.139,21.607 L224.621,29.418 L231.404,29.418 L230.02,36.528 L214,36.528 L220.905,1" id="Fill-20" fill="#FFFFFF" sketch:type="MSShapeGroup"></path>
        <path d="M257.469,1 L251.166,16.711 L252.207,36.528 L243.648,36.528 C243.318,32.984 243.219,28.67 243.357,23.58 C242.684,25.835 241.896,28.221 240.994,30.737 L238.998,36.528 L230,36.528 L237.209,16.711 L236.905,1 L245.837,1 C245.81,1.979 245.814,3.608 245.85,5.892 C245.896,7.631 245.902,9.234 245.859,10.699 L249.721,1 L257.469,1" id="Fill-21" fill="#FFFFFF" sketch:type="MSShapeGroup"></path>
        <path d="M268.964,7.079 L267.206,16.12 C267.47,16.133 267.691,16.143 267.883,16.143 C268.733,16.143 269.365,15.931 269.771,15.515 C270.181,15.098 270.515,14.232 270.769,12.917 L271.338,9.995 C271.576,8.781 271.537,7.991 271.228,7.627 C270.922,7.261 270.164,7.079 268.964,7.079 M260.906,1 L270.211,1 C272.726,1 274.623,1.195 275.9,1.592 C277.179,1.985 278.084,2.557 278.62,3.304 C279.156,4.048 279.439,4.954 279.476,6.015 C279.509,7.076 279.31,8.715 278.878,10.94 L278.276,14.034 C277.837,16.301 277.278,17.958 276.61,18.996 C275.939,20.033 274.924,20.83 273.569,21.385 C272.207,21.94 270.521,22.218 268.502,22.218 L266.023,22.218 L263.24,36.528 L254,36.528 L260.906,1" id="Fill-22" fill="#FFFFFF" sketch:type="MSShapeGroup"></path>
        <path d="M293.65559,9.873 C293.97559,8.224 294.08959,7.163 293.99559,6.704 C293.90359,6.244 293.56959,6.013 293.00159,6.013 C292.51859,6.013 292.11259,6.201 291.78459,6.575 C291.45459,6.945 291.11359,8.046 290.75759,9.873 L287.53359,26.467 C287.13059,28.527 286.97159,29.799 287.04459,30.282 C287.11659,30.768 287.46459,31.006 288.07959,31.006 C288.70759,31.006 289.16359,30.731 289.44759,30.173 C289.72859,29.618 290.07559,28.292 290.48159,26.2 L293.65559,9.873 L293.65559,9.873 Z M300.62459,21.549 C299.93259,25.119 299.35459,27.644 298.89759,29.132 C298.44259,30.616 297.64859,31.971 296.52859,33.201 C295.40359,34.431 294.02259,35.376 292.38959,36.034 C290.75359,36.691 288.93459,37.019 286.92959,37.019 C285.02859,37.019 283.38259,36.711 281.98759,36.09 C280.59559,35.468 279.55759,34.533 278.88059,33.29 C278.19859,32.047 277.91159,30.692 278.02359,29.231 C278.13059,27.767 278.53959,25.208 279.25059,21.549 L280.43259,15.47 C281.12859,11.9 281.70259,9.374 282.15959,7.89 C282.61459,6.403 283.40559,5.048 284.52859,3.818 C285.65359,2.592 287.03459,1.646 288.67159,0.988 C290.30459,0.331 292.12259,0 294.12859,0 C296.02859,0 297.67559,0.311 299.06959,0.932 C300.46259,1.557 301.49559,2.489 302.18059,3.732 C302.85859,4.975 303.14159,6.327 303.03659,7.791 C302.92759,9.252 302.51459,11.814 301.80759,15.47 L300.62459,21.549 L300.62459,21.549 Z" id="Fill-23" fill="#FFFFFF" sketch:type="MSShapeGroup"></path>
        <path d="M315.961,7.079 L314.424,14.979 C315.465,14.979 316.222,14.837 316.695,14.549 C317.164,14.265 317.555,13.339 317.859,11.776 L318.238,9.823 C318.457,8.695 318.396,7.955 318.066,7.605 C317.73,7.251 317.029,7.079 315.961,7.079 M307.906,1 L314.441,1 C318.805,1 321.722,1.168 323.201,1.506 C324.678,1.84 325.769,2.699 326.472,4.081 C327.18,5.466 327.236,7.67 326.648,10.699 C326.109,13.462 325.404,15.323 324.533,16.272 C323.66,17.224 322.195,17.795 320.138,17.984 C321.881,18.437 322.992,19.045 323.471,19.805 C323.953,20.565 324.209,21.266 324.238,21.901 C324.267,22.536 324.008,24.291 323.447,27.157 L321.627,36.528 L313.045,36.528 L315.344,24.721 C315.711,22.816 315.793,21.643 315.578,21.187 C315.365,20.734 314.625,20.506 313.349,20.506 L310.236,36.528 L301,36.528 L307.906,1" id="Fill-24" fill="#FFFFFF" sketch:type="MSShapeGroup"></path>
        <path d="M350.631,1 L349.246,8.11 L343.761,8.11 L338.238,36.528 L329,36.528 L334.527,8.11 L329.058,8.11 L330.441,1 L350.631,1" id="Fill-25" fill="#FFFFFF" sketch:type="MSShapeGroup"></path>
        <path d="M52.6841275,57.063 L53.8811275,50.908 C54.3211275,48.654 53.9371275,47.527 52.7311275,47.527 C52.1521275,47.527 51.6531275,47.771 51.2371275,48.254 C50.8201275,48.74 50.4901275,49.626 50.2391275,50.908 L49.0421275,57.063 C48.7941275,58.35 48.7811275,59.232 49.0091275,59.718 C49.2371275,60.204 49.6361275,60.445 50.2191275,60.445 L50.4071275,60.445 L49.8881275,56.829 L51.5311275,56.829 L51.9071275,59.364 C52.2321275,58.832 52.4931275,58.065 52.6841275,57.063 L52.6841275,57.063 Z M55.6691275,51.263 L54.6081275,56.71 C54.1591275,59.03 53.3621275,60.581 52.2251275,61.36 L52.6511275,64.111 L50.9621275,64.111 L50.6351275,61.926 C50.4731275,61.959 50.2321275,61.973 49.9211275,61.973 C48.7311275,61.973 47.8911275,61.592 47.4061275,60.832 C46.9201275,60.075 46.8701275,58.7 47.2571275,56.71 L48.3151275,51.263 C48.7011275,49.275 49.2861275,47.897 50.0701275,47.141 C50.8501275,46.38 51.8321275,46 53.0151275,46 C54.1951275,46 55.0281275,46.38 55.5171275,47.141 C56.0031275,47.897 56.0561275,49.275 55.6691275,51.263 L55.6691275,51.263 Z" id="Fill-26" fill="#8A8B8A" sketch:type="MSShapeGroup"></path>
        <path d="M64.9261275,47 L66.7801275,47 L64.5391275,58.533 C64.1521275,60.523 63.5681275,61.894 62.7841275,62.655 C62.0041275,63.415 61.0321275,63.795 59.8751275,63.795 C58.7181275,63.795 57.8921275,63.415 57.4061275,62.655 C56.9201275,61.894 56.8701275,60.523 57.2571275,58.533 L59.4981275,47 L61.3531275,47 L59.0461275,58.883 C58.7971275,60.152 58.7811275,61.035 59.0031275,61.528 C59.2171275,62.02 59.6041275,62.268 60.1631275,62.268 C60.7181275,62.268 61.2041275,62.02 61.6201275,61.528 C62.0371275,61.035 62.3671275,60.152 62.6151275,58.883 L64.9261275,47" id="Fill-27" fill="#8A8B8A" sketch:type="MSShapeGroup"></path>
        <path d="M71.985,49.37 L68.961,57.664 L71.757,57.664 L71.985,49.37 L71.985,49.37 Z M71.622,63.441 L71.724,59.167 L68.412,59.167 L66.875,63.441 L65,63.441 L71.202,47 L73.687,47 L73.502,63.441 L71.622,63.441 L71.622,63.441 Z" id="Fill-28" fill="#8A8B8A" sketch:type="MSShapeGroup"></path>
        <path d="M75,63.441 L78.196,47 L80.077,47 L77.172,61.941 L80.811,61.941 L80.52,63.441 L75,63.441" id="Fill-29" fill="#8A8B8A" sketch:type="MSShapeGroup"></path>
        <path d="M83,63.441 L86.197,47 L88.078,47 L84.881,63.441 L83,63.441" id="Fill-30" fill="#8A8B8A" sketch:type="MSShapeGroup"></path>
        <path d="M88.624,48.5 L88.919,47 L95.331,47 L95.04,48.5 L92.76,48.5 L89.854,63.441 L88,63.441 L90.902,48.5 L88.624,48.5" id="Fill-31" fill="#8A8B8A" sketch:type="MSShapeGroup"></path>
        <path d="M97.832,63.441 L96,63.441 L97.068,57.944 L96.096,47 L97.928,47 L98.466,55.478 L102.274,47 L104.106,47 L98.899,57.944 L97.832,63.441" id="Fill-32" fill="#8A8B8A" sketch:type="MSShapeGroup"></path>
        <path d="M111.987,49.37 L108.963,57.664 L111.759,57.664 L111.987,49.37 L111.987,49.37 Z M111.624,63.441 L111.726,59.167 L108.417,59.167 L106.877,63.441 L105,63.441 L111.204,47 L113.693,47 L113.505,63.441 L111.624,63.441 L111.624,63.441 Z" id="Fill-33" fill="#8A8B8A" sketch:type="MSShapeGroup"></path>
        <path d="M123.925867,47 L125.779867,47 L123.538867,58.533 C123.151867,60.523 122.566867,61.894 121.786867,62.655 C121.003867,63.415 120.034867,63.795 118.874867,63.795 C117.717867,63.795 116.891867,63.415 116.408867,62.655 C115.919867,61.894 115.869867,60.523 116.256867,58.533 L118.497867,47 L120.355867,47 L118.044867,58.883 C117.796867,60.152 117.783867,61.035 118.001867,61.528 C118.216867,62.02 118.603867,62.268 119.161867,62.268 C119.717867,62.268 120.203867,62.02 120.619867,61.528 C121.036867,61.035 121.370867,60.152 121.617867,58.883 L123.925867,47" id="Fill-34" fill="#8A8B8A" sketch:type="MSShapeGroup"></path>
        <path d="M127.629,48.5 L127.919,47 L134.332,47 L134.038,48.5 L131.76,48.5 L128.858,63.441 L127,63.441 L129.902,48.5 L127.629,48.5" id="Fill-35" fill="#8A8B8A" sketch:type="MSShapeGroup"></path>
        <path d="M138.687867,58.237 L140.109867,50.908 C140.548867,48.654 140.161867,47.527 138.958867,47.527 C138.377867,47.527 137.881867,47.771 137.467867,48.254 C137.051867,48.74 136.717867,49.626 136.469867,50.908 L135.045867,58.237 C134.793867,59.522 134.783867,60.405 135.008867,60.892 C135.236867,61.377 135.639867,61.622 136.218867,61.622 C137.425867,61.622 138.244867,60.491 138.687867,58.237 L138.687867,58.237 Z M141.897867,51.263 L140.608867,57.887 C140.224867,59.877 139.639867,61.248 138.859867,62.009 C138.076867,62.769 137.091867,63.149 135.910867,63.149 C134.731867,63.149 133.894867,62.769 133.408867,62.009 C132.919867,61.248 132.869867,59.877 133.256867,57.887 L134.546867,51.263 C134.932867,49.275 135.514867,47.897 136.298867,47.141 C137.081867,46.38 138.062867,46 139.242867,46 C140.426867,46 141.259867,46.38 141.748867,47.141 C142.231867,47.897 142.283867,49.275 141.897867,51.263 L141.897867,51.263 Z" id="Fill-36" fill="#8A8B8A" sketch:type="MSShapeGroup"></path>
        <path d="M148.472627,59.106 C148.714627,57.854 148.479627,56.892 147.761627,56.221 L146.155627,54.832 C144.939627,53.831 144.522627,52.35 144.905627,50.39 C145.219627,48.764 145.748627,47.626 146.495627,46.975 C147.239627,46.324 148.148627,46 149.219627,46 C150.294627,46 151.067627,46.301 151.546627,46.905 C152.026627,47.507 152.171627,48.602 151.989627,50.182 L150.128627,50.581 C150.455627,48.575 150.065627,47.573 148.961627,47.573 C147.857627,47.573 147.140627,48.426 146.809627,50.135 C146.661627,50.886 146.624627,51.497 146.697627,51.967 C146.773627,52.436 147.005627,52.859 147.405627,53.235 L148.991627,54.621 C149.368627,54.935 149.662627,55.232 149.874627,55.514 C150.085627,55.794 150.251627,56.247 150.376627,56.865 C150.498627,57.483 150.475627,58.214 150.310627,59.061 C150.019627,60.564 149.487627,61.622 148.717627,62.23 C147.953627,62.842 147.011627,63.149 145.897627,63.149 C144.786627,63.149 143.987627,62.789 143.504627,62.068 C143.015627,61.348 142.883627,60.062 143.101627,58.214 L144.922627,57.91 C144.723627,59.242 144.730627,60.188 144.942627,60.753 C145.156627,61.314 145.550627,61.599 146.132627,61.599 C147.365627,61.599 148.148627,60.769 148.472627,59.106" id="Fill-37" fill="#8A8B8A" sketch:type="MSShapeGroup"></path>
        <path d="M157.326,56.993 L156,54.996 L158.102,53 L159.474,54.996 L157.326,56.993" id="Fill-38" fill="#8A8B8A" sketch:type="MSShapeGroup"></path>
        <path d="M166.328,55.994 L165.172,61.941 L169.26,61.941 L168.967,63.441 L163,63.441 L166.196,47 L172.093,47 L171.799,48.5 L167.787,48.5 L166.623,54.49 L170.285,54.49 L169.994,55.994 L166.328,55.994" id="Fill-39" fill="#8A8B8A" sketch:type="MSShapeGroup"></path>
        <path d="M176.216,47 L177.277,52.897 L180.605,47 L182.39,47 L177.674,55.082 L179.193,63.441 L177.363,63.441 L176.246,57.356 L172.785,63.441 L171,63.441 L175.836,55.101 L174.381,47 L176.216,47" id="Fill-40" fill="#8A8B8A" sketch:type="MSShapeGroup"></path>
        <path d="M182.963861,60.904 C183.168861,61.381 183.545861,61.622 184.093861,61.622 C184.642861,61.622 185.092861,61.414 185.446861,60.997 C185.802861,60.581 186.139861,59.797 186.457861,58.637 L188.060861,58.852 C187.608861,60.445 187.036861,61.563 186.341861,62.197 C185.647861,62.828 184.768861,63.149 183.704861,63.149 C182.635861,63.149 181.862861,62.766 181.389861,61.995 C180.911861,61.231 180.874861,59.82 181.270861,57.768 L182.513861,51.378 C182.913861,49.328 183.495861,47.921 184.276861,47.15 C185.049861,46.383 185.964861,46 187.026861,46 C188.081861,46 188.833861,46.274 189.284861,46.819 C189.733861,47.372 189.881861,48.347 189.733861,49.758 L187.938861,50.182 C188.038861,49.18 187.997861,48.485 187.809861,48.103 C187.630861,47.719 187.284861,47.527 186.774861,47.527 C186.265861,47.527 185.813861,47.771 185.418861,48.265 C185.026861,48.76 184.706861,49.662 184.448861,50.979 L183.032861,58.264 C182.782861,59.546 182.758861,60.425 182.963861,60.904" id="Fill-41" fill="#8A8B8A" sketch:type="MSShapeGroup"></path>
        <path d="M192.325,55.994 L191.168,61.941 L195.257,61.941 L194.963,63.441 L189,63.441 L192.193,47 L198.09,47 L197.798,48.5 L193.783,48.5 L192.616,54.49 L196.282,54.49 L195.991,55.994 L192.325,55.994" id="Fill-42" fill="#8A8B8A" sketch:type="MSShapeGroup"></path>
        <path d="M204.816,52.682 L204.957,51.955 C205.405,49.654 205.024,48.5 203.821,48.5 L202.786,48.5 L201.299,56.136 L202.336,56.136 C203.539,56.136 204.366,54.986 204.816,52.682 L204.816,52.682 Z M198,63.441 L201.2,47 L204.112,47 C205.286,47 206.115,47.376 206.604,48.136 C207.09,48.897 207.139,50.272 206.752,52.258 L206.733,52.377 C206.346,54.368 205.761,55.736 204.981,56.49 C204.198,57.24 203.223,57.617 202.049,57.617 L201.014,57.617 L199.881,63.441 L198,63.441 L198,63.441 Z" id="Fill-43" fill="#8A8B8A" sketch:type="MSShapeGroup"></path>
        <path d="M208.625,48.5 L208.92,47 L215.328,47 L215.037,48.5 L212.76,48.5 L209.855,63.441 L208,63.441 L210.902,48.5 L208.625,48.5" id="Fill-44" fill="#8A8B8A" sketch:type="MSShapeGroup"></path>
        <path d="M213,63.441 L216.197,47 L218.071,47 L214.875,63.441 L213,63.441" id="Fill-45" fill="#8A8B8A" sketch:type="MSShapeGroup"></path>
        <path d="M224.683217,58.237 L226.110217,50.908 C226.548217,48.654 226.163217,47.527 224.960217,47.527 C224.379217,47.527 223.880217,47.771 223.466217,48.254 C223.050217,48.74 222.720217,49.626 222.468217,50.908 L221.047217,58.237 C220.796217,59.522 220.782217,60.405 221.011217,60.892 C221.235217,61.377 221.639217,61.622 222.220217,61.622 C223.423217,61.622 224.247217,60.491 224.683217,58.237 L224.683217,58.237 Z M227.896217,51.263 L226.607217,57.887 C226.224217,59.877 225.638217,61.248 224.858217,62.009 C224.075217,62.769 223.093217,63.149 221.909217,63.149 C220.726217,63.149 219.894217,62.769 219.407217,62.009 C218.918217,61.248 218.872217,59.877 219.255217,57.887 L220.544217,51.263 C220.931217,49.275 221.517217,47.897 222.300217,47.141 C223.076217,46.38 224.058217,46 225.245217,46 C226.429217,46 227.261217,46.38 227.747217,47.141 C228.233217,47.897 228.282217,49.275 227.896217,51.263 L227.896217,51.263 Z" id="Fill-46" fill="#8A8B8A" sketch:type="MSShapeGroup"></path>
        <path d="M229.835,63.441 L228,63.441 L231.201,47 L233.147,47 L234.641,59.025 L236.982,47 L238.81,47 L235.617,63.441 L233.662,63.441 L232.168,51.439 L229.835,63.441" id="Fill-47" fill="#8A8B8A" sketch:type="MSShapeGroup"></path>
        <path d="M243.984,49.37 L240.967,57.664 L243.76,57.664 L243.984,49.37 L243.984,49.37 Z M243.625,63.441 L243.727,59.167 L240.414,59.167 L238.877,63.441 L237,63.441 L243.205,47 L245.693,47 L245.502,63.441 L243.625,63.441 L243.625,63.441 Z" id="Fill-48" fill="#8A8B8A" sketch:type="MSShapeGroup"></path>
        <path d="M248,63.441 L251.198,47 L253.075,47 L250.172,61.941 L253.811,61.941 L253.518,63.441 L248,63.441" id="Fill-49" fill="#8A8B8A" sketch:type="MSShapeGroup"></path>
        <path d="M264.812,52.682 L264.954,51.955 C265.401,49.654 265.024,48.5 263.817,48.5 L262.782,48.5 L261.299,56.136 L262.333,56.136 C263.54,56.136 264.366,54.986 264.812,52.682 L264.812,52.682 Z M258,63.441 L261.2,47 L264.112,47 C265.285,47 266.112,47.376 266.6,48.136 C267.09,48.897 267.139,50.272 266.753,52.258 L266.729,52.377 C266.343,54.368 265.758,55.736 264.977,56.49 C264.198,57.24 263.222,57.617 262.046,57.617 L261.011,57.617 L259.881,63.441 L258,63.441 L258,63.441 Z" id="Fill-50" fill="#8A8B8A" sketch:type="MSShapeGroup"></path>
        <path d="M273.861,52.424 L273.998,51.72 C274.233,50.517 274.235,49.677 274.008,49.208 C273.779,48.735 273.379,48.5 272.817,48.5 L271.783,48.5 L270.391,55.667 L271.426,55.667 C272.629,55.667 273.442,54.585 273.861,52.424 L273.861,52.424 Z M267,63.441 L270.196,47 L273.109,47 C274.269,47 275.096,47.363 275.594,48.104 C276.094,48.837 276.159,50.16 275.785,52.07 L275.763,52.193 C275.3,54.569 274.431,56.08 273.145,56.724 L273.786,63.441 L271.862,63.441 L271.254,57.148 L270.1,57.148 L268.877,63.441 L267,63.441 L267,63.441 Z" id="Fill-51" fill="#8A8B8A" sketch:type="MSShapeGroup"></path>
        <path d="M276,63.441 L279.193,47 L281.074,47 L277.88,63.441 L276,63.441" id="Fill-52" fill="#8A8B8A" sketch:type="MSShapeGroup"></path>
        <path d="M282.964069,60.904 C283.169069,61.381 283.542069,61.622 284.091069,61.622 C284.640069,61.622 285.090069,61.414 285.447069,60.997 C285.804069,60.581 286.141069,59.797 286.458069,58.637 L288.062069,58.852 C287.609069,60.445 287.036069,61.563 286.343069,62.197 C285.649069,62.828 284.766069,63.149 283.702069,63.149 C282.634069,63.149 281.864069,62.766 281.388069,61.995 C280.911069,61.231 280.875069,59.82 281.273069,57.768 L282.515069,51.378 C282.911069,49.328 283.499069,47.921 284.273069,47.15 C285.050069,46.383 285.966069,46 287.024069,46 C288.077069,46 288.835069,46.274 289.285069,46.819 C289.731069,47.372 289.883069,48.347 289.734069,49.758 L287.939069,50.182 C288.038069,49.18 287.995069,48.485 287.810069,48.103 C287.632069,47.719 287.282069,47.527 286.776069,47.527 C286.267069,47.527 285.814069,47.771 285.421069,48.265 C285.027069,48.76 284.702069,49.662 284.449069,50.979 L283.031069,58.264 C282.783069,59.546 282.759069,60.425 282.964069,60.904" id="Fill-53" fill="#8A8B8A" sketch:type="MSShapeGroup"></path>
        <path d="M293.326,55.994 L292.169,61.941 L296.257,61.941 L295.966,63.441 L290,63.441 L293.193,47 L299.09,47 L298.8,48.5 L294.781,48.5 L293.617,54.49 L297.283,54.49 L296.988,55.994 L293.326,55.994" id="Fill-54" fill="#8A8B8A" sketch:type="MSShapeGroup"></path>
        <path d="M303.470428,59.106 C303.716428,57.854 303.480428,56.892 302.763428,56.221 L301.153428,54.832 C299.940428,53.831 299.524428,52.35 299.903428,50.39 C300.222428,48.764 300.751428,47.626 301.493428,46.975 C302.241428,46.324 303.149428,46 304.222428,46 C305.296428,46 306.069428,46.301 306.548428,46.905 C307.026428,47.507 307.173428,48.602 306.991428,50.182 L305.130428,50.581 C305.458428,48.575 305.067428,47.573 303.964428,47.573 C302.862428,47.573 302.142428,48.426 301.808428,50.135 C301.663428,50.886 301.626428,51.497 301.698428,51.967 C301.774428,52.436 302.009428,52.859 302.405428,53.235 L303.993428,54.621 C304.366428,54.935 304.663428,55.232 304.876428,55.514 C305.087428,55.794 305.255428,56.247 305.374428,56.865 C305.497428,57.483 305.478428,58.214 305.315428,59.061 C305.021428,60.564 304.489428,61.622 303.722428,62.23 C302.954428,62.842 302.013428,63.149 300.901428,63.149 C299.788428,63.149 298.988428,62.789 298.505428,62.068 C298.017428,61.348 297.881428,60.062 298.103428,58.214 L299.924428,57.91 C299.726428,59.242 299.735428,60.188 299.946428,60.753 C300.158428,61.314 300.556428,61.599 301.134428,61.599 C302.370428,61.599 303.148428,60.769 303.470428,59.106" id="Fill-55" fill="#8A8B8A" sketch:type="MSShapeGroup"></path>
    </g>
</svg>